USFL
nRows=200
nColumns=2
inDegrees=yes
endheader
time	tib_ant_r	
2.92742	 58.411687	
2.96069	 58.420824	
2.99395	 58.421561	
3.02722	 58.416333	
3.06048	 58.421784	
3.09375	 58.424696	
3.12702	 58.429992	
3.16028	 58.421145	
3.19355	 58.424272	
3.22681	 58.419991	
3.26008	 58.417769	
3.29335	 58.423663	
3.32661	 58.427491	
3.35988	 58.429057	
3.39315	 58.439387	
3.42641	 58.440410	
3.45968	 58.451824	
3.49294	 58.456676	
3.52621	 58.455304	
3.55948	 58.468527	
3.59274	 58.468861	
3.62601	 58.459187	
3.65927	 58.448958	
3.69254	 58.453480	
3.72581	 58.467144	
3.75907	 58.450327	
3.79234	 58.443362	
3.8256	 58.437650	
3.85887	 58.457245	
3.89214	 58.456987	
3.9254	 58.453684	
3.95867	 58.468892	
3.99194	 58.463990	
4.0252	 58.467990	
4.05847	 58.478792	
4.09173	 58.484170	
4.125	 58.447540	
4.15827	 58.457314	
4.19153	 58.466762	
4.2248	 58.475480	
4.25806	 58.477014	
4.29133	 58.483710	
4.3246	 58.477586	
4.35786	 58.474329	
4.39113	 58.475866	
4.4244	 58.484886	
4.45766	 58.476382	
4.49093	 58.478951	
4.52419	 58.477664	
4.55746	 58.475338	
4.59073	 58.475628	
4.62399	 58.447031	
4.65726	 58.455192	
4.69052	 58.451224	
4.72379	 58.370817	
4.75706	 58.126089	
4.79032	 57.898193	
4.82359	 57.866434	
4.85685	 57.549284	
4.89012	 57.363334	
4.92339	 57.290857	
4.95665	 57.152811	
4.98992	 56.843540	
5.02319	 55.345567	
5.05645	 55.097199	
5.08972	 54.673265	
5.12298	 54.465552	
5.15625	 53.375556	
5.18952	 53.145335	
5.22278	 52.909329	
5.25605	 52.429513	
5.28931	 52.289658	
5.32258	 52.121680	
5.35585	 51.788087	
5.38911	 50.725795	
5.42238	 50.493855	
5.45565	 49.266685	
5.48891	 48.990689	
5.52218	 48.749245	
5.55544	 48.708238	
5.58871	 48.531112	
5.62198	 47.763199	
5.65524	 47.678678	
5.68851	 47.496761	
5.72177	 47.319278	
5.75504	 47.270464	
5.78831	 47.056972	
5.82157	 46.985348	
5.85484	 46.864215	
5.8881	 46.763465	
5.92137	 46.674083	
5.95464	 46.570339	
5.9879	 46.412347	
6.02117	 46.310339	
6.05444	 46.164910	
6.0877	 45.978588	
6.12097	 45.883755	
6.15423	 45.880982	
6.1875	 45.816050	
6.22077	 45.743029	
6.25403	 45.665392	
6.2873	 45.624663	
6.32056	 45.648721	
6.35383	 45.577651	
6.3871	 45.600503	
6.42036	 45.670910	
6.45363	 45.726296	
6.4869	 45.740713	
6.52016	 45.795554	
6.55343	 45.798612	
6.58669	 45.774800	
6.61996	 45.799758	
6.65323	 45.780775	
6.68649	 45.757519	
6.71976	 45.760260	
6.75302	 45.752923	
6.78629	 45.647965	
6.81956	 45.641269	
6.85282	 45.643707	
6.88609	 45.595526	
6.91935	 45.614515	
6.95262	 45.601824	
6.98589	 45.584632	
7.01915	 45.563433	
7.05242	 45.556055	
7.08569	 45.541945	
7.11895	 45.519535	
7.15222	 45.486510	
7.18548	 45.466916	
7.21875	 45.479645	
7.25202	 45.457867	
7.28528	 45.426534	
7.31855	 45.444777	
7.35181	 45.459828	
7.38508	 45.464682	
7.41835	 45.488245	
7.45161	 45.491473	
7.48488	 45.460489	
7.51815	 45.454879	
7.55141	 45.419770	
7.58468	 45.382849	
7.61794	 45.367137	
7.65121	 45.308253	
7.68448	 45.308251	
7.71774	 45.203021	
7.75101	 45.239970	
7.78427	 45.272126	
7.81754	 45.285687	
7.85081	 45.266091	
7.88407	 45.303040	
7.91734	 45.308449	
7.9506	 45.312046	
7.98387	 45.285864	
8.01714	 45.267318	
8.0504	 45.268406	
8.08367	 45.244838	
8.11694	 45.244891	
8.1502	 45.248695	
8.18347	 45.231854	
8.21673	 45.255208	
8.25	 45.251214	
8.28327	 45.269962	
8.31653	 45.287122	
8.3498	 45.291042	
8.38306	 45.280409	
8.41633	 45.313479	
8.4496	 45.293248	
8.48286	 45.292990	
8.51613	 45.291520	
8.5494	 45.289838	
8.58266	 45.285551	
8.61593	 45.309910	
8.64919	 45.280319	
8.68246	 45.279206	
8.71573	 45.287175	
8.74899	 45.297857	
8.78226	 45.309723	
8.81552	 45.303957	
8.84879	 44.553207	
8.88206	 44.545766	
8.91532	 44.529224	
8.94859	 44.563262	
8.98185	 44.561236	
9.01512	 44.512138	
9.04839	 44.517966	
9.08165	 44.539417	
9.11492	 44.571769	
9.14819	 44.563398	
9.18145	 44.532278	
9.21472	 44.519022	
9.24798	 44.534055	
9.28125	 44.548270	
9.31452	 44.583688	
9.34778	 44.587993	
9.38105	 44.582304	
9.41431	 44.550859	
9.44758	 44.569863	
9.48085	 44.606611	
9.51411	 44.612601	
9.54738	 44.597397	
